<?xml version="1.0" standalone="no"?>
<!DOCTYPE svg PUBLIC "-//W3C//DTD SVG 20010904//EN"
 "http://www.w3.org/TR/2001/REC-SVG-20010904/DTD/svg10.dtd">
<svg version="1.0" xmlns="http://www.w3.org/2000/svg"
 width="693.000000pt" height="730.000000pt" viewBox="0 0 693.000000 730.000000"
 preserveAspectRatio="xMidYMid meet">
<metadata>
Created by potrace 1.16, written by Peter Selinger 2001-2019
</metadata>
<g transform="translate(0.000000,730.000000) scale(0.100000,-0.100000)"
fill="#000000" stroke="none">
<path d="M3235 6310 c-484 -33 -957 -192 -1346 -451 -554 -369 -941 -935
-1058 -1544 -55 -289 -55 -592 -2 -860 95 -468 370 -968 514 -931 37 9 73 67
102 161 37 120 55 228 60 345 2 58 2 92 -1 75 -9 -62 -14 -74 -27 -69 -15 5
-47 67 -47 89 0 27 20 15 21 -12 1 -17 3 -21 6 -11 7 27 -39 118 -59 118 -14
0 -18 9 -18 40 0 29 4 40 15 40 13 0 14 4 1 34 -8 19 -12 43 -9 54 2 10 -3 26
-11 35 -18 18 -21 37 -6 37 6 0 10 18 10 40 0 22 -4 40 -10 40 -18 0 -10 22
15 42 14 11 25 30 25 43 0 13 7 30 15 39 18 17 19 33 4 38 -7 2 -7 12 0 30 5
14 9 51 8 81 -2 40 1 53 11 50 16 -7 17 68 1 84 -9 9 -6 19 10 42 26 36 25 36
45 16 13 -14 15 -13 13 4 0 11 -6 17 -14 14 -17 -6 -17 5 0 21 6 7 34 39 62
72 27 32 117 127 200 209 l150 150 -151 1 c-128 1 -160 5 -215 24 -226 79
-207 192 81 479 156 156 348 330 449 406 14 11 63 49 108 85 218 174 562 407
883 597 151 90 411 233 422 233 5 0 8 5 8 10 0 11 -96 11 -265 0z"/>
<path d="M3941 6129 c-172 -122 -333 -247 -407 -314 -27 -24 -134 -117 -238
-205 -215 -185 -319 -281 -310 -289 3 -3 8 -1 12 4 4 6 16 17 26 25 18 14 19
13 13 -2 -4 -12 -2 -15 9 -11 7 3 14 15 14 28 0 13 6 25 13 28 10 4 13 -2 9
-18 -4 -26 16 -44 28 -25 6 10 13 9 31 -3 13 -9 32 -14 44 -11 17 4 24 0 28
-15 5 -19 1 -21 -45 -21 -30 0 -47 -4 -43 -10 9 -15 112 -12 138 4 12 7 41 16
64 20 24 3 63 13 88 22 25 8 61 16 81 18 19 2 37 6 41 10 10 9 43 7 43 -3 0
-5 -10 -11 -22 -14 -19 -3 -17 -5 12 -12 29 -7 31 -9 15 -16 -11 -4 -14 -8 -7
-8 21 -1 44 -28 29 -34 -6 -3 20 -6 58 -7 39 -2 81 -4 95 -5 14 -2 111 -5 215
-6 529 -7 948 -41 1097 -90 118 -38 163 -65 226 -134 69 -75 86 -130 79 -249
-6 -92 -23 -154 -71 -259 -14 -32 -26 -62 -26 -67 0 -6 -4 -10 -10 -10 -5 0
-10 -7 -10 -15 0 -8 -4 -15 -10 -15 -5 0 -10 -4 -10 -10 0 -11 -125 -189 -258
-370 -47 -63 -104 -140 -126 -170 -23 -30 -43 -57 -46 -60 -3 -3 -17 -21 -30
-40 -14 -19 -32 -44 -42 -54 -10 -11 -18 -23 -18 -28 0 -4 -13 -22 -28 -40
-16 -18 -46 -58 -67 -88 -21 -30 -45 -61 -52 -68 -7 -7 -13 -17 -13 -22 0 -5
-7 -7 -15 -4 -11 5 -13 2 -9 -10 3 -9 2 -16 -2 -16 -5 0 -15 -13 -22 -30 -8
-17 -21 -30 -32 -30 -23 0 -40 -21 -36 -46 2 -10 1 -13 -1 -5 -4 10 -12 5 -30
-15 -43 -50 -58 -77 -58 -108 0 -17 -6 -31 -15 -34 -13 -4 -13 -3 -2 11 8 9
12 22 10 28 -4 11 -28 -17 -114 -134 -36 -49 -39 -72 -7 -46 16 13 17 12 4 -4
-7 -9 -19 -16 -26 -15 -7 2 -34 -26 -61 -62 -27 -36 -54 -71 -61 -78 -16 -17
-16 -25 -1 -40 10 -10 8 -14 -10 -18 -12 -4 -19 -10 -17 -14 3 -5 -2 -27 -11
-48 -22 -56 -15 -100 19 -126 25 -18 42 -21 125 -20 111 1 196 18 367 75 271
91 385 85 385 -20 0 -48 -20 -89 -65 -132 -19 -19 -35 -40 -35 -46 0 -7 -3
-13 -7 -13 -20 0 -313 -309 -330 -348 -45 -101 40 -158 232 -155 183 2 426 90
586 211 155 118 391 434 519 697 164 338 233 631 233 1000 1 532 -166 1005
-512 1450 -81 104 -333 351 -442 433 -308 230 -670 402 -999 476 -21 4 -54
-15 -179 -105z"/>
<path d="M3700 4624 c-19 -1 -143 -8 -275 -14 -284 -13 -801 -47 -900 -59 -66
-8 -67 -8 -20 -10 28 0 172 6 320 14 936 51 1160 58 1208 37 19 -8 27 -19 27
-37 0 -29 -24 -54 -288 -304 -89 -85 -161 -156 -158 -158 2 -2 17 9 33 24 16
15 44 41 63 57 19 16 73 64 120 105 47 42 115 102 151 133 75 65 120 138 103
165 -23 38 -64 47 -209 49 -77 1 -156 0 -175 -2z"/>
<path d="M2330 3819 c-52 -19 -64 -59 -66 -219 l-2 -145 9 125 c10 149 22 195
54 216 46 30 77 -4 180 -200 162 -309 188 -339 278 -315 34 9 63 32 147 118
227 232 239 258 23 46 -68 -66 -135 -125 -151 -132 -41 -18 -89 -16 -111 6
-21 21 -127 206 -191 335 -42 83 -115 177 -136 175 -5 0 -20 -5 -34 -10z"/>
<path d="M1690 650 c-12 -23 -13 -349 -1 -369 5 -8 40 -11 117 -9 109 3 109 3
109 28 0 24 -3 25 -72 28 l-73 3 0 59 0 60 59 0 c63 0 76 8 66 40 -5 17 -15
20 -69 20 -59 0 -63 1 -60 23 1 12 3 34 3 50 l1 27 76 0 75 0 -3 28 -3 27
-107 3 c-99 2 -108 1 -118 -18z"/>
<path d="M2377 555 c-20 -14 -37 -22 -36 -18 4 26 -3 34 -28 31 l-28 -3 0
-205 0 -205 35 0 35 0 5 68 c5 66 6 68 25 53 11 -9 36 -16 56 -16 54 0 94 41
108 110 32 156 -63 258 -172 185z m78 -55 c24 -26 25 -119 1 -155 -20 -31 -42
-32 -73 -3 -19 18 -23 32 -23 79 0 50 3 60 26 78 33 26 46 26 69 1z"/>
<path d="M2702 555 c-25 -21 -30 -22 -28 -7 1 13 -7 17 -29 17 l-30 0 0 -145
0 -145 35 0 35 0 3 95 c2 81 6 98 25 118 14 15 30 22 44 19 26 -5 38 20 28 53
-9 28 -47 26 -83 -5z"/>
<path d="M2890 562 c-50 -25 -72 -70 -72 -146 0 -110 44 -156 149 -156 63 0
98 18 98 50 0 17 -5 24 -15 22 -8 -2 -35 -6 -60 -9 -50 -6 -83 13 -95 55 -6
22 -5 22 89 22 l96 0 0 45 c0 60 -23 103 -65 121 -46 19 -83 18 -125 -4z"/>
<path d="M3200 573 c-38 -14 -60 -47 -60 -88 0 -47 11 -61 78 -94 34 -17 43
-27 40 -44 -4 -28 -45 -34 -87 -13 -34 18 -46 9 -37 -29 10 -41 100 -59 156
-30 36 19 50 43 50 89 0 28 -7 40 -32 59 -18 13 -48 30 -65 37 -66 26 -22 76
46 52 34 -12 41 -8 41 24 0 33 -79 56 -130 37z"/>
<path d="M3450 574 c-35 -15 -60 -48 -60 -81 0 -50 15 -70 70 -98 57 -29 66
-40 50 -60 -16 -19 -53 -19 -91 0 -27 14 -30 14 -35 0 -12 -30 13 -63 51 -71
87 -16 155 23 155 90 0 45 -29 79 -85 100 -37 15 -46 22 -43 40 2 17 9 21 38
20 19 -1 44 -3 55 -5 22 -4 32 25 17 49 -9 14 -98 25 -122 16z"/>
<path d="M1970 559 c0 -6 16 -39 35 -74 l35 -63 -40 -70 c-22 -39 -40 -74 -40
-77 0 -3 18 -5 40 -5 38 0 41 3 66 51 l26 52 19 -34 c11 -19 23 -41 28 -49 8
-15 91 -28 91 -15 0 4 -17 39 -37 77 l-36 70 31 64 c18 35 32 69 32 75 0 6
-15 9 -32 7 -27 -2 -37 -11 -56 -45 -13 -24 -27 -43 -30 -43 -4 0 -18 20 -31
45 -22 41 -27 45 -62 45 -22 0 -39 -5 -39 -11z"/>
</g>
</svg>
