<?xml version="1.0" standalone="no"?>
<!DOCTYPE svg PUBLIC "-//W3C//DTD SVG 20010904//EN"
 "http://www.w3.org/TR/2001/REC-SVG-20010904/DTD/svg10.dtd">
<svg version="1.0" xmlns="http://www.w3.org/2000/svg"
 width="379.000000pt" height="418.000000pt" viewBox="0 0 379.000000 418.000000"
 preserveAspectRatio="xMidYMid meet">
<metadata>
Created by potrace 1.16, written by Peter Selinger 2001-2019
</metadata>
<g transform="translate(0.000000,418.000000) scale(0.100000,-0.100000)"
fill="#000000" stroke="none">
<path d="M1639 3755 c-328 -51 -606 -186 -833 -404 -280 -270 -426 -604 -426
-976 0 -205 42 -381 140 -581 51 -106 123 -194 158 -194 52 0 92 114 97 275 2
79 1 94 -4 55 -8 -59 -14 -39 -13 45 l0 50 -12 -35 -13 -35 -6 49 c-12 85 -8
226 6 231 7 3 12 24 11 58 0 28 5 61 13 72 7 11 13 26 13 35 -1 12 -3 12 -14
-2 -7 -10 -16 -18 -19 -18 -26 0 58 110 193 253 36 38 66 72 68 76 1 4 -32 8
-75 9 -97 3 -148 16 -179 47 -55 55 -21 118 157 290 213 205 438 375 728 548
97 58 200 117 229 132 28 15 52 29 52 31 0 9 -191 1 -271 -11z"/>
<path d="M2194 3683 c-125 -85 -431 -340 -518 -432 l-29 -31 34 10 c42 12 39
13 39 -6 0 -12 -7 -15 -25 -12 -13 3 -22 1 -19 -3 3 -5 18 -9 33 -9 15 0 32
-5 38 -11 8 -8 24 -6 57 5 67 23 152 31 161 16 4 -7 2 -16 -4 -20 -16 -10 90
-20 208 -20 112 0 386 -16 518 -30 169 -18 265 -75 292 -173 27 -94 -7 -192
-125 -364 -96 -141 -304 -418 -362 -483 -12 -14 -20 -31 -17 -38 3 -7 1 -11
-4 -7 -5 3 -19 -7 -30 -22 -11 -16 -24 -32 -29 -38 -162 -206 -218 -315 -180
-353 19 -19 127 -14 209 9 201 57 225 62 251 56 36 -9 51 -38 38 -71 -5 -14
-57 -76 -116 -138 -152 -162 -164 -197 -78 -226 68 -24 210 -1 314 50 138 68
286 239 397 463 165 329 175 735 29 1082 -160 378 -510 689 -915 813 -36 11
-73 23 -82 25 -9 3 -47 -15 -85 -42z"/>
<path d="M3565 583 c-51 -10 -75 -27 -94 -69 -21 -44 -21 -45 -2 -82 21 -42
77 -74 121 -69 38 4 88 38 101 68 16 40 3 106 -26 125 -29 19 -75 31 -100 27z"/>
<path d="M2160 550 l-55 -5 -5 -140 c-3 -77 -3 -153 0 -170 l6 -30 112 -3 c88
-2 112 0 112 11 0 27 -25 37 -97 37 l-73 0 0 50 0 50 54 0 c67 0 86 7 86 30 0
23 -19 30 -86 30 l-54 0 0 45 c0 43 1 44 36 51 19 3 53 4 75 1 30 -4 42 -1 46
10 13 33 -40 44 -157 33z"/>
<path d="M2735 463 c-12 -2 -34 -14 -50 -27 -26 -21 -30 -32 -36 -92 -5 -63
-4 -72 19 -102 30 -42 65 -55 121 -48 50 7 81 29 81 59 0 15 -5 18 -22 13 -99
-30 -138 -14 -138 57 0 77 46 107 115 75 33 -15 52 0 36 30 -17 31 -70 46
-126 35z"/>
<path d="M2995 463 c-32 -8 -75 -54 -87 -94 -15 -52 -3 -104 33 -139 37 -35
74 -44 145 -35 46 5 55 10 60 31 9 34 3 37 -49 23 -56 -14 -112 1 -120 32 -3
11 -7 23 -9 27 -1 4 33 8 77 9 44 0 88 2 98 2 25 1 23 70 -3 104 -29 36 -90
53 -145 40z"/>
<path d="M3275 462 c-39 -13 -56 -29 -61 -56 -8 -48 5 -66 66 -93 68 -29 80
-47 43 -66 -22 -12 -32 -12 -65 1 -30 12 -41 13 -51 3 -31 -31 49 -70 118 -57
43 8 72 33 81 69 5 23 0 33 -31 62 -20 19 -47 35 -59 35 -13 0 -29 7 -36 16
-11 12 -10 18 3 31 14 14 22 15 53 5 21 -6 41 -9 46 -6 10 6 11 41 1 47 -16 9
-89 15 -108 9z"/>
<path d="M2370 446 c0 -7 16 -34 36 -60 l36 -48 -18 -34 c-11 -19 -29 -45 -41
-56 -30 -28 -29 -45 2 -51 20 -3 32 3 55 32 17 19 30 39 30 43 0 20 22 4 46
-32 21 -31 33 -40 55 -40 41 0 44 16 12 56 -39 50 -57 85 -46 93 19 13 63 79
63 94 0 32 -43 19 -81 -25 l-36 -42 -28 42 c-22 33 -34 42 -56 42 -18 0 -29
-5 -29 -14z"/>
</g>
</svg>
